<svg id="ef5yZ1CMlje1" xmlns="http://www.w3.org/2000/svg" xmlns:xlink="http://www.w3.org/1999/xlink" viewBox="58 87 193 280" shape-rendering="geometricPrecision" text-rendering="geometricPrecision"><defs><filter id="ef5yZ1CMlje2-filter" x="-400%" width="600%" y="-400%" height="600%"><feGaussianBlur id="ef5yZ1CMlje2-filter-drop-shadow-0-blur" in="SourceAlpha" stdDeviation="3,3"/><feOffset id="ef5yZ1CMlje2-filter-drop-shadow-0-offset" dx="3" dy="3" result="tmp"/><feFlood id="ef5yZ1CMlje2-filter-drop-shadow-0-flood" flood-color="rgba(0,0,0,0.3)"/><feComposite id="ef5yZ1CMlje2-filter-drop-shadow-0-composite" operator="in" in2="tmp"/><feMerge id="ef5yZ1CMlje2-filter-drop-shadow-0-merge"><feMergeNode id="ef5yZ1CMlje2-filter-drop-shadow-0-merge-node-1"/><feMergeNode id="ef5yZ1CMlje2-filter-drop-shadow-0-merge-node-2" in="SourceGraphic"/></feMerge></filter><filter id="ef5yZ1CMlje4-filter" x="-400%" width="600%" y="-400%" height="600%"><feGaussianBlur id="ef5yZ1CMlje4-filter-drop-shadow-0-blur" in="SourceAlpha" stdDeviation="3,3"/><feOffset id="ef5yZ1CMlje4-filter-drop-shadow-0-offset" dx="1" dy="1" result="tmp"/><feFlood id="ef5yZ1CMlje4-filter-drop-shadow-0-flood" flood-color="rgba(0,0,0,0.3)"/><feComposite id="ef5yZ1CMlje4-filter-drop-shadow-0-composite" operator="in" in2="tmp"/><feMerge id="ef5yZ1CMlje4-filter-drop-shadow-0-merge"><feMergeNode id="ef5yZ1CMlje4-filter-drop-shadow-0-merge-node-1"/><feMergeNode id="ef5yZ1CMlje4-filter-drop-shadow-0-merge-node-2" in="SourceGraphic"/></feMerge></filter></defs><path id="ef5yZ1CMlje2" d="M79.904106,176.384087Q80.032989,284.513906,80.147430,337.487675C80.173859,349.721336,90.021180,357.208014,100.014151,357.390984C110.007123,357.573954,119.812872,349.786855,119.917461,337.487675C119.876317,313.023166,120.081620,287.183969,120.070512,274.684520C120.382627,257.752802,132.855294,239.982604,155.252472,239.925330C176.430773,240.073615,190.044909,256.798931,190.188798,274.684520C190.059738,291.869196,189.865396,325.857551,190.059432,337.487675C190.241626,349.864835,200.050521,357.535244,209.962741,357.394135C220.063426,357.505062,229.894016,349.465506,229.866050,337.487675C229.946423,273.280267,230.215254,212.009330,229.866050,176.384858C229.914615,134.286460,195.462942,101.645691,155.499691,101.512069C115.665158,101.292510,80.055924,131.972370,79.904106,176.384087Z" filter="url(#ef5yZ1CMlje2-filter)" fill="rgb(46,200,102)" stroke="rgb(46,200,102)" stroke-width="5" stroke-dasharray="951.310000"/><path id="ef5yZ1CMlje3" d="M155.743015,115.116860C184.959594,115.304959,200.241734,142.039140,199.888223,159.985635C199.442143,182.631475,182.536102,205.009678,155.019447,204.854410C135.249091,204.742852,109.783143,190.117848,110.150672,159.985635C110.380053,141.179598,123.567549,115.423435,155.743015,115.116860Z" transform="matrix(1 0 0 1 0.14137649000000 16.39922332499998)" fill="rgb(255,255,255)" stroke="rgb(46,200,102)" stroke-width="5" stroke-dasharray="282.220000"/><path id="ef5yZ1CMlje4" d="M155.252472,144.790394C161.154763,144.883118,170.206264,149.318609,170.214688,159.985635C170.222569,169.964793,161.828984,175.288737,155.019447,175.180876C147.601474,175.063377,139.834121,169.518805,139.824206,159.985635C139.815873,151.972921,145.922065,144.872648,155.252472,144.790394Z" transform="matrix(1 0 0 1 0.14137649000000 16.39922332499998)" filter="url(#ef5yZ1CMlje4-filter)" fill="rgb(46,200,102)" stroke="rgb(46,200,102)" stroke-width="5" stroke-dasharray="95.630000"/></svg>